# xmcd
#
# Track frame offsets:
#	150
#	17815
#	35762
#	67500
#	89157
#	108377
#	133922
#	160145
#
# Disc length: 2349 seconds
#
# Revision: 0
# Processed by: cddbd v1.4PL0 Copyright (c) Steve Scherf et al.
# Submitted via: dBpowerAMP V4.0
#
DISCID=68092b08
DTITLE=Jess Roden - Play It Dirty, Play It Class
DYEAR=1900
DGENRE=
TTITLE0=Jess Roden.U S Dream
TTITLE1=Jess Roden,Stay In Bed
TTITLE2=Jess Roden, Can;t Get Next To You.
TTITLE3=Jess Roden, Dirty Bars
TTITLE4=Jess Roden, Me and Crystal Eye.
TTITLE5=Jess Roden.Stone Chaser
TTITLE6=Jess Roden.Ballard Of Big Sally
TTITLE7=Jess Roden.All Night Long.
EXTD=Jess Roden, Play It Dirty,Play It Class.
EXTT0=
EXTT1=
EXTT2=
EXTT3=
EXTT4=
EXTT5=
EXTT6=
EXTT7=
PLAYORDER=
